<svg width="100" height="96" viewBox="0 0 100 96" fill="none" xmlns="http://www.w3.org/2000/svg">
<rect x="0.00439453" width="100" height="96" fill="#3B3B3B"/>
<path d="M45.8378 62C46.4131 62 46.8795 61.5523 46.8795 61C46.8795 60.4477 46.4131 60 45.8378 60C45.2625 60 44.7961 60.4477 44.7961 61C44.7961 61.5523 45.2625 62 45.8378 62Z" stroke="white" stroke-width="2" stroke-linecap="round" stroke-linejoin="round"/>
<path d="M58.3378 62C58.9131 62 59.3795 61.5523 59.3795 61C59.3795 60.4477 58.9131 60 58.3378 60C57.7625 60 57.2961 60.4477 57.2961 61C57.2961 61.5523 57.7625 62 58.3378 62Z" stroke="white" stroke-width="2" stroke-linecap="round" stroke-linejoin="round"/>
<path d="M35.4211 35H40.3454L43.6446 51.9603C43.7572 52.5434 44.0655 53.0672 44.5157 53.4401C44.9658 53.8129 45.529 54.0109 46.1067 53.9995H58.0727C58.6504 54.0109 59.2136 53.8129 59.6637 53.4401C60.1139 53.0672 60.4222 52.5434 60.5348 51.9603L62.5045 41.3332H41.5764" stroke="white" stroke-width="2" stroke-linecap="round" stroke-linejoin="round"/>
</svg>
