<svg width="200" height="48" viewBox="0 0 200 48" fill="none" xmlns="http://www.w3.org/2000/svg">
<rect x="0.5" y="0.5" width="199" height="47" rx="4.5" stroke="#F05A00"/>
<path d="M56.36 30V18.64H57.8V23.552H59.32L63.064 18.64H64.728L60.504 24.144L65.016 30H63.256L59.352 24.864H57.8V30H56.36ZM65.9019 27.584C65.9019 27.0507 66.0512 26.592 66.3499 26.208C66.6592 25.8133 67.0805 25.5093 67.6139 25.296C68.1472 25.0827 68.7659 24.976 69.4699 24.976C69.8432 24.976 70.2379 25.008 70.6539 25.072C71.0699 25.1253 71.4379 25.2107 71.7579 25.328V24.72C71.7579 24.08 71.5659 23.5787 71.1819 23.216C70.7979 22.8427 70.2539 22.656 69.5499 22.656C69.0912 22.656 68.6485 22.7413 68.2219 22.912C67.8059 23.072 67.3632 23.3067 66.8939 23.616L66.3819 22.624C66.9259 22.2507 67.4699 21.9733 68.0139 21.792C68.5579 21.6 69.1232 21.504 69.7099 21.504C70.7765 21.504 71.6192 21.8027 72.2379 22.4C72.8565 22.9867 73.1659 23.808 73.1659 24.864V28.4C73.1659 28.5707 73.1979 28.6987 73.2619 28.784C73.3365 28.8587 73.4539 28.9013 73.6139 28.912V30C73.4752 30.0213 73.3525 30.0373 73.2459 30.048C73.1499 30.0587 73.0699 30.064 73.0059 30.064C72.6752 30.064 72.4245 29.9733 72.2539 29.792C72.0939 29.6107 72.0032 29.4187 71.9819 29.216L71.9499 28.688C71.5872 29.1573 71.1125 29.52 70.5259 29.776C69.9392 30.032 69.3579 30.16 68.7819 30.16C68.2272 30.16 67.7312 30.048 67.2939 29.824C66.8565 29.5893 66.5152 29.28 66.2699 28.896C66.0245 28.5013 65.9019 28.064 65.9019 27.584ZM71.3419 28.176C71.4699 28.0267 71.5712 27.8773 71.6459 27.728C71.7205 27.568 71.7579 27.4347 71.7579 27.328V26.288C71.4272 26.16 71.0805 26.064 70.7179 26C70.3552 25.9253 69.9979 25.888 69.6459 25.888C68.9312 25.888 68.3499 26.032 67.9019 26.32C67.4645 26.5973 67.2459 26.9813 67.2459 27.472C67.2459 27.7387 67.3152 28 67.4539 28.256C67.6032 28.5013 67.8165 28.704 68.0939 28.864C68.3819 29.024 68.7339 29.104 69.1499 29.104C69.5872 29.104 70.0032 29.0187 70.3979 28.848C70.7925 28.6667 71.1072 28.4427 71.3419 28.176ZM77.3555 30V22.896H74.4755V21.648H81.6435V22.896H78.7635V30H77.3555ZM82.4019 27.584C82.4019 27.0507 82.5512 26.592 82.8499 26.208C83.1592 25.8133 83.5805 25.5093 84.1139 25.296C84.6472 25.0827 85.2659 24.976 85.9699 24.976C86.3432 24.976 86.7379 25.008 87.1539 25.072C87.5699 25.1253 87.9379 25.2107 88.2579 25.328V24.72C88.2579 24.08 88.0659 23.5787 87.6819 23.216C87.2979 22.8427 86.7539 22.656 86.0499 22.656C85.5912 22.656 85.1485 22.7413 84.7219 22.912C84.3059 23.072 83.8632 23.3067 83.3939 23.616L82.8819 22.624C83.4259 22.2507 83.9699 21.9733 84.5139 21.792C85.0579 21.6 85.6232 21.504 86.2099 21.504C87.2765 21.504 88.1192 21.8027 88.7379 22.4C89.3565 22.9867 89.6659 23.808 89.6659 24.864V28.4C89.6659 28.5707 89.6979 28.6987 89.7619 28.784C89.8365 28.8587 89.9539 28.9013 90.1139 28.912V30C89.9752 30.0213 89.8525 30.0373 89.7459 30.048C89.6499 30.0587 89.5699 30.064 89.5059 30.064C89.1752 30.064 88.9245 29.9733 88.7539 29.792C88.5939 29.6107 88.5032 29.4187 88.4819 29.216L88.4499 28.688C88.0872 29.1573 87.6125 29.52 87.0259 29.776C86.4392 30.032 85.8579 30.16 85.2819 30.16C84.7272 30.16 84.2312 30.048 83.7939 29.824C83.3565 29.5893 83.0152 29.28 82.7699 28.896C82.5245 28.5013 82.4019 28.064 82.4019 27.584ZM87.8419 28.176C87.9699 28.0267 88.0712 27.8773 88.1459 27.728C88.2205 27.568 88.2579 27.4347 88.2579 27.328V26.288C87.9272 26.16 87.5805 26.064 87.2179 26C86.8552 25.9253 86.4979 25.888 86.1459 25.888C85.4312 25.888 84.8499 26.032 84.4019 26.32C83.9645 26.5973 83.7459 26.9813 83.7459 27.472C83.7459 27.7387 83.8152 28 83.9539 28.256C84.1032 28.5013 84.3165 28.704 84.5939 28.864C84.8819 29.024 85.2339 29.104 85.6499 29.104C86.0872 29.104 86.5032 29.0187 86.8979 28.848C87.2925 28.6667 87.6072 28.4427 87.8419 28.176ZM91.1813 30.064V28.8C91.4586 28.8 91.7039 28.7307 91.9173 28.592C92.1413 28.4427 92.3386 28.1973 92.5093 27.856C92.6799 27.504 92.8133 27.024 92.9093 26.416C93.0159 25.7973 93.0853 25.0133 93.1173 24.064L93.2133 21.648H98.8933V30H97.4853V22.896H94.4613L94.4293 24.192C94.3866 25.3333 94.2906 26.2827 94.1413 27.04C93.9919 27.7973 93.7839 28.3947 93.5173 28.832C93.2506 29.2693 92.9199 29.584 92.5253 29.776C92.1413 29.968 91.6933 30.064 91.1813 30.064ZM104.815 30.16C104.186 30.16 103.615 30.048 103.103 29.824C102.591 29.5893 102.149 29.2747 101.775 28.88C101.402 28.4747 101.114 28.0107 100.911 27.488C100.709 26.9653 100.607 26.416 100.607 25.84C100.607 25.2533 100.709 24.6987 100.911 24.176C101.114 23.6533 101.402 23.1947 101.775 22.8C102.149 22.3947 102.591 22.08 103.103 21.856C103.626 21.6213 104.197 21.504 104.815 21.504C105.445 21.504 106.015 21.6213 106.527 21.856C107.039 22.08 107.482 22.3947 107.855 22.8C108.239 23.1947 108.533 23.6533 108.735 24.176C108.938 24.6987 109.039 25.2533 109.039 25.84C109.039 26.416 108.938 26.9653 108.735 27.488C108.533 28.0107 108.245 28.4747 107.871 28.88C107.498 29.2747 107.05 29.5893 106.527 29.824C106.015 30.048 105.445 30.16 104.815 30.16ZM102.047 25.856C102.047 26.432 102.17 26.9547 102.415 27.424C102.671 27.8933 103.007 28.2667 103.423 28.544C103.839 28.8107 104.303 28.944 104.815 28.944C105.327 28.944 105.791 28.8053 106.207 28.528C106.634 28.2507 106.97 27.8773 107.215 27.408C107.471 26.928 107.599 26.4 107.599 25.824C107.599 25.248 107.471 24.7253 107.215 24.256C106.97 23.7867 106.634 23.4133 106.207 23.136C105.791 22.8587 105.327 22.72 104.815 22.72C104.303 22.72 103.839 22.864 103.423 23.152C103.007 23.4293 102.671 23.8027 102.415 24.272C102.17 24.7413 102.047 25.2693 102.047 25.856ZM110.729 30V21.648H115.881V22.896H112.137V30H110.729ZM123.402 30V22.896H120.522V21.648H127.69V22.896H124.81V30H123.402ZM132.753 30.16C132.123 30.16 131.553 30.048 131.041 29.824C130.529 29.5893 130.086 29.2747 129.713 28.88C129.339 28.4747 129.051 28.0107 128.849 27.488C128.646 26.9653 128.545 26.416 128.545 25.84C128.545 25.2533 128.646 24.6987 128.849 24.176C129.051 23.6533 129.339 23.1947 129.713 22.8C130.086 22.3947 130.529 22.08 131.041 21.856C131.563 21.6213 132.134 21.504 132.753 21.504C133.382 21.504 133.953 21.6213 134.465 21.856C134.977 22.08 135.419 22.3947 135.793 22.8C136.177 23.1947 136.47 23.6533 136.673 24.176C136.875 24.6987 136.977 25.2533 136.977 25.84C136.977 26.416 136.875 26.9653 136.673 27.488C136.47 28.0107 136.182 28.4747 135.809 28.88C135.435 29.2747 134.987 29.5893 134.465 29.824C133.953 30.048 133.382 30.16 132.753 30.16ZM129.985 25.856C129.985 26.432 130.107 26.9547 130.353 27.424C130.609 27.8933 130.945 28.2667 131.361 28.544C131.777 28.8107 132.241 28.944 132.753 28.944C133.265 28.944 133.729 28.8053 134.145 28.528C134.571 28.2507 134.907 27.8773 135.153 27.408C135.409 26.928 135.537 26.4 135.537 25.824C135.537 25.248 135.409 24.7253 135.153 24.256C134.907 23.7867 134.571 23.4133 134.145 23.136C133.729 22.8587 133.265 22.72 132.753 22.72C132.241 22.72 131.777 22.864 131.361 23.152C130.945 23.4293 130.609 23.8027 130.353 24.272C130.107 24.7413 129.985 25.2693 129.985 25.856ZM138.667 30V21.648H142.987C143.488 21.648 143.904 21.7493 144.235 21.952C144.566 22.144 144.811 22.3947 144.971 22.704C145.142 23.0133 145.227 23.344 145.227 23.696C145.227 24.144 145.12 24.5493 144.907 24.912C144.694 25.264 144.384 25.5307 143.979 25.712C144.459 25.8507 144.848 26.1013 145.147 26.464C145.446 26.816 145.595 27.2533 145.595 27.776C145.595 28.2453 145.483 28.6453 145.259 28.976C145.035 29.3067 144.72 29.5627 144.315 29.744C143.91 29.9147 143.44 30 142.907 30H138.667ZM140.011 29.008H142.875C143.131 29.008 143.36 28.944 143.563 28.816C143.776 28.688 143.942 28.5173 144.059 28.304C144.176 28.0907 144.235 27.8667 144.235 27.632C144.235 27.376 144.176 27.1467 144.059 26.944C143.952 26.7307 143.798 26.5653 143.595 26.448C143.403 26.32 143.179 26.256 142.923 26.256H140.011V29.008ZM140.011 25.328H142.619C142.875 25.328 143.099 25.264 143.291 25.136C143.483 24.9973 143.632 24.8213 143.739 24.608C143.846 24.3947 143.899 24.1707 143.899 23.936C143.899 23.584 143.782 23.28 143.547 23.024C143.323 22.768 143.03 22.64 142.667 22.64H140.011V25.328ZM146.73 27.584C146.73 27.0507 146.879 26.592 147.178 26.208C147.487 25.8133 147.909 25.5093 148.442 25.296C148.975 25.0827 149.594 24.976 150.298 24.976C150.671 24.976 151.066 25.008 151.482 25.072C151.898 25.1253 152.266 25.2107 152.586 25.328V24.72C152.586 24.08 152.394 23.5787 152.01 23.216C151.626 22.8427 151.082 22.656 150.378 22.656C149.919 22.656 149.477 22.7413 149.05 22.912C148.634 23.072 148.191 23.3067 147.722 23.616L147.21 22.624C147.754 22.2507 148.298 21.9733 148.842 21.792C149.386 21.6 149.951 21.504 150.538 21.504C151.605 21.504 152.447 21.8027 153.066 22.4C153.685 22.9867 153.994 23.808 153.994 24.864V28.4C153.994 28.5707 154.026 28.6987 154.09 28.784C154.165 28.8587 154.282 28.9013 154.442 28.912V30C154.303 30.0213 154.181 30.0373 154.074 30.048C153.978 30.0587 153.898 30.064 153.834 30.064C153.503 30.064 153.253 29.9733 153.082 29.792C152.922 29.6107 152.831 29.4187 152.81 29.216L152.778 28.688C152.415 29.1573 151.941 29.52 151.354 29.776C150.767 30.032 150.186 30.16 149.61 30.16C149.055 30.16 148.559 30.048 148.122 29.824C147.685 29.5893 147.343 29.28 147.098 28.896C146.853 28.5013 146.73 28.064 146.73 27.584ZM152.17 28.176C152.298 28.0267 152.399 27.8773 152.474 27.728C152.549 27.568 152.586 27.4347 152.586 27.328V26.288C152.255 26.16 151.909 26.064 151.546 26C151.183 25.9253 150.826 25.888 150.474 25.888C149.759 25.888 149.178 26.032 148.73 26.32C148.293 26.5973 148.074 26.9813 148.074 27.472C148.074 27.7387 148.143 28 148.282 28.256C148.431 28.5013 148.645 28.704 148.922 28.864C149.21 29.024 149.562 29.104 149.978 29.104C150.415 29.104 150.831 29.0187 151.226 28.848C151.621 28.6667 151.935 28.4427 152.17 28.176ZM160.741 30.16C160.059 30.16 159.451 29.9893 158.917 29.648C158.384 29.3067 157.963 28.8747 157.653 28.352V33.408H156.245V21.648H157.493V23.216C157.824 22.704 158.256 22.2933 158.789 21.984C159.323 21.664 159.904 21.504 160.533 21.504C161.109 21.504 161.637 21.6213 162.117 21.856C162.597 22.0907 163.013 22.4107 163.365 22.816C163.717 23.2213 163.989 23.6853 164.181 24.208C164.384 24.72 164.485 25.2587 164.485 25.824C164.485 26.6133 164.325 27.3387 164.005 28C163.696 28.6613 163.259 29.1893 162.693 29.584C162.128 29.968 161.477 30.16 160.741 30.16ZM160.309 28.944C160.725 28.944 161.099 28.8587 161.429 28.688C161.771 28.5067 162.059 28.272 162.293 27.984C162.539 27.6853 162.725 27.3493 162.853 26.976C162.981 26.6027 163.045 26.2187 163.045 25.824C163.045 25.408 162.971 25.0133 162.821 24.64C162.683 24.2667 162.48 23.936 162.213 23.648C161.957 23.36 161.653 23.136 161.301 22.976C160.96 22.8053 160.587 22.72 160.181 22.72C159.925 22.72 159.659 22.768 159.381 22.864C159.115 22.96 158.859 23.0987 158.613 23.28C158.368 23.4507 158.16 23.648 157.989 23.872C157.819 24.096 157.707 24.336 157.653 24.592V26.976C157.813 27.3387 158.027 27.6693 158.293 27.968C158.56 28.2667 158.869 28.5067 159.221 28.688C159.573 28.8587 159.936 28.944 160.309 28.944ZM169.862 30.16C169.233 30.16 168.662 30.048 168.15 29.824C167.638 29.5893 167.195 29.2747 166.822 28.88C166.449 28.4747 166.161 28.0107 165.958 27.488C165.755 26.9653 165.654 26.416 165.654 25.84C165.654 25.2533 165.755 24.6987 165.958 24.176C166.161 23.6533 166.449 23.1947 166.822 22.8C167.195 22.3947 167.638 22.08 168.15 21.856C168.673 21.6213 169.243 21.504 169.862 21.504C170.491 21.504 171.062 21.6213 171.574 21.856C172.086 22.08 172.529 22.3947 172.902 22.8C173.286 23.1947 173.579 23.6533 173.782 24.176C173.985 24.6987 174.086 25.2533 174.086 25.84C174.086 26.416 173.985 26.9653 173.782 27.488C173.579 28.0107 173.291 28.4747 172.918 28.88C172.545 29.2747 172.097 29.5893 171.574 29.824C171.062 30.048 170.491 30.16 169.862 30.16ZM167.094 25.856C167.094 26.432 167.217 26.9547 167.462 27.424C167.718 27.8933 168.054 28.2667 168.47 28.544C168.886 28.8107 169.35 28.944 169.862 28.944C170.374 28.944 170.838 28.8053 171.254 28.528C171.681 28.2507 172.017 27.8773 172.262 27.408C172.518 26.928 172.646 26.4 172.646 25.824C172.646 25.248 172.518 24.7253 172.262 24.256C172.017 23.7867 171.681 23.4133 171.254 23.136C170.838 22.8587 170.374 22.72 169.862 22.72C169.35 22.72 168.886 22.864 168.47 23.152C168.054 23.4293 167.718 23.8027 167.462 24.272C167.217 24.7413 167.094 25.2693 167.094 25.856ZM175.776 30V21.648H180.096C180.598 21.648 181.014 21.7493 181.344 21.952C181.675 22.144 181.92 22.3947 182.08 22.704C182.251 23.0133 182.336 23.344 182.336 23.696C182.336 24.144 182.23 24.5493 182.016 24.912C181.803 25.264 181.494 25.5307 181.088 25.712C181.568 25.8507 181.958 26.1013 182.256 26.464C182.555 26.816 182.704 27.2533 182.704 27.776C182.704 28.2453 182.592 28.6453 182.368 28.976C182.144 29.3067 181.83 29.5627 181.424 29.744C181.019 29.9147 180.55 30 180.016 30H175.776ZM177.12 29.008H179.984C180.24 29.008 180.47 28.944 180.672 28.816C180.886 28.688 181.051 28.5173 181.168 28.304C181.286 28.0907 181.344 27.8667 181.344 27.632C181.344 27.376 181.286 27.1467 181.168 26.944C181.062 26.7307 180.907 26.5653 180.704 26.448C180.512 26.32 180.288 26.256 180.032 26.256H177.12V29.008ZM177.12 25.328H179.728C179.984 25.328 180.208 25.264 180.4 25.136C180.592 24.9973 180.742 24.8213 180.848 24.608C180.955 24.3947 181.008 24.1707 181.008 23.936C181.008 23.584 180.891 23.28 180.656 23.024C180.432 22.768 180.139 22.64 179.776 22.64H177.12V25.328Z" fill="white"/>
<path d="M16 15H40" stroke="white" stroke-width="2"/>
<path d="M16 23H40" stroke="white" stroke-width="2"/>
<path d="M16 31H31.5676" stroke="white" stroke-width="2"/>
</svg>
