<svg width="100" height="96" viewBox="0 0 100 96" fill="none" xmlns="http://www.w3.org/2000/svg">
<rect width="100" height="96" fill="#3B3B3B"/>
<path d="M64.3627 38.1467C63.6533 37.4653 62.811 36.9249 61.884 36.5561C60.957 36.1874 59.9634 35.9976 58.9599 35.9976C57.9564 35.9976 56.9628 36.1874 56.0358 36.5561C55.1088 36.9249 54.2665 37.4653 53.5571 38.1467L52.0849 39.56L50.6127 38.1467C49.1798 36.7711 47.2363 35.9983 45.2099 35.9983C43.1835 35.9983 41.24 36.7711 39.8071 38.1467C38.3742 39.5222 37.5692 41.3879 37.5692 43.3333C37.5692 45.2787 38.3742 47.1444 39.8071 48.52L41.2793 49.9333L52.0849 60.3067L62.8905 49.9333L64.3627 48.52C65.0724 47.839 65.6354 47.0304 66.0195 46.1405C66.4036 45.2505 66.6013 44.2966 66.6013 43.3333C66.6013 42.37 66.4036 41.4161 66.0195 40.5262C65.6354 39.6362 65.0724 38.8277 64.3627 38.1467V38.1467Z" stroke="white" stroke-width="2" stroke-linecap="round" stroke-linejoin="round"/>
</svg>
