<svg width="24" height="21" viewBox="0 0 24 21" fill="none" xmlns="http://www.w3.org/2000/svg">
<path d="M20.8413 2.60999C20.3305 2.099 19.7241 1.69364 19.0566 1.41708C18.3892 1.14052 17.6738 0.998169 16.9513 0.998169C16.2288 0.998169 15.5134 1.14052 14.8459 1.41708C14.1785 1.69364 13.572 2.099 13.0613 2.60999L12.0013 3.66999L10.9413 2.60999C9.90959 1.5783 8.51031 0.998704 7.05128 0.998704C5.59225 0.998704 4.19297 1.5783 3.16128 2.60999C2.12959 3.64169 1.54999 5.04096 1.54999 6.49999C1.54999 7.95903 2.12959 9.3583 3.16128 10.39L4.22128 11.45L12.0013 19.23L19.7813 11.45L20.8413 10.39C21.3523 9.87924 21.7576 9.27281 22.0342 8.60535C22.3108 7.93789 22.4531 7.22248 22.4531 6.49999C22.4531 5.77751 22.3108 5.0621 22.0342 4.39464C21.7576 3.72718 21.3523 3.12075 20.8413 2.60999V2.60999Z" stroke="#DEDBDB" stroke-width="2" stroke-linecap="round" stroke-linejoin="round"/>
</svg>
